<?xml version="1.0" standalone="no"?>
<!DOCTYPE svg PUBLIC "-//W3C//DTD SVG 20010904//EN"
 "http://www.w3.org/TR/2001/REC-SVG-20010904/DTD/svg10.dtd">
<svg version="1.0" xmlns="http://www.w3.org/2000/svg"
 width="512.000000pt" height="512.000000pt" viewBox="0 0 512.000000 512.000000"
 preserveAspectRatio="xMidYMid meet">

<g transform="translate(0.000000,512.000000) scale(0.100000,-0.100000)"
fill="#000000" stroke="none">
<path d="M2290 5113 c-200 -14 -445 -64 -615 -123 -188 -67 -413 -199 -543
-319 -48 -45 -53 -53 -50 -87 4 -45 43 -80 80 -71 12 3 55 33 93 65 264 223
587 345 1015 382 524 45 1076 -66 1465 -295 201 -118 379 -267 500 -418 98
-121 97 -108 8 -168 -43 -28 -84 -59 -90 -67 -19 -23 -16 -76 5 -95 40 -36 62
-31 177 41 130 81 165 112 165 144 0 75 -213 337 -401 494 -409 341 -992 530
-1617 522 -81 -1 -167 -3 -192 -5z"/>
<path d="M2310 4813 c-316 -30 -508 -80 -714 -186 -361 -185 -607 -534 -682
-967 -20 -114 -15 -313 11 -435 125 -600 539 -969 1219 -1085 104 -18 120 -18
145 -5 68 35 50 128 -27 140 -157 26 -273 52 -367 82 -473 152 -757 481 -830
963 -27 176 -12 332 50 517 143 427 458 691 939 788 376 75 837 48 1193 -70
214 -71 429 -193 575 -326 38 -34 41 -40 26 -49 -9 -6 -80 -59 -159 -119
l-142 -110 -41 26 c-69 44 -265 132 -383 173 -249 86 -531 124 -751 102 -153
-16 -256 -43 -367 -97 -354 -172 -492 -544 -323 -868 40 -76 188 -227 271
-276 74 -44 215 -97 309 -116 88 -19 270 -35 401 -35 379 0 774 -121 1006
-307 187 -150 319 -379 370 -645 44 -232 34 -405 -34 -615 -128 -390 -405
-648 -824 -767 -187 -54 -319 -70 -571 -69 -240 0 -376 15 -577 63 -281 68
-549 201 -743 369 -25 21 -43 41 -40 43 3 3 52 40 110 83 58 43 128 98 156
121 l52 44 102 -60 c193 -111 442 -199 666 -236 134 -22 414 -25 524 -5 112
20 224 58 325 109 123 63 253 191 308 303 120 245 73 504 -128 704 -162 161
-396 250 -683 257 -91 3 -94 2 -118 -25 -32 -37 -30 -62 5 -98 27 -27 35 -29
103 -29 96 0 244 -26 333 -57 218 -78 369 -241 396 -427 34 -240 -127 -451
-416 -545 -125 -40 -227 -54 -385 -53 -309 1 -611 89 -901 262 -64 39 -125 70
-135 70 -23 0 -45 -14 -144 -96 -41 -33 -129 -101 -195 -149 -157 -115 -175
-132 -175 -167 0 -34 35 -74 143 -166 285 -241 658 -398 1077 -452 47 -6 164
-14 260 -17 851 -28 1420 306 1628 957 85 268 82 561 -10 850 -36 113 -113
267 -176 352 -187 255 -481 426 -862 502 -162 32 -276 44 -490 51 -373 12
-560 73 -717 231 -204 207 -184 515 45 694 328 255 994 205 1506 -115 102 -63
112 -62 238 38 58 46 152 117 209 158 56 41 118 88 136 106 60 57 43 91 -110
221 -371 314 -868 476 -1442 470 -77 -1 -156 -3 -175 -5z"/>
<path d="M922 4412 c-47 -7 -179 -252 -240 -442 -63 -198 -77 -288 -77 -490 0
-153 4 -205 23 -298 160 -795 751 -1279 1662 -1362 63 -6 205 -14 315 -19 160
-8 214 -14 270 -31 219 -69 294 -210 173 -327 -76 -72 -167 -106 -334 -123
-343 -35 -750 104 -1067 364 -92 76 -106 75 -199 -11 -178 -163 -406 -339
-665 -512 -177 -117 -182 -125 -140 -205 41 -78 122 -181 226 -288 314 -326
750 -543 1256 -627 374 -63 805 -50 1134 34 115 29 155 46 165 70 19 52 -11
105 -61 105 -15 0 -81 -13 -147 -30 -474 -116 -1061 -83 -1516 87 -337 126
-652 350 -842 600 -25 32 -48 63 -51 70 -5 7 39 43 119 97 176 121 327 236
478 362 70 60 134 113 140 118 9 6 34 -7 77 -41 308 -241 746 -378 1104 -344
193 19 333 73 427 165 179 176 117 422 -137 542 -105 51 -232 71 -515 83 -258
12 -372 26 -557 71 -629 152 -1037 558 -1163 1158 -27 125 -37 342 -21 453 31
217 118 458 231 635 35 56 37 73 10 106 -21 28 -42 36 -78 30z"/>
<path d="M2400 3953 c-217 -22 -392 -118 -457 -252 -23 -46 -28 -69 -28 -131
1 -66 5 -83 35 -138 58 -108 169 -186 330 -232 57 -16 124 -23 280 -31 391
-18 593 -47 805 -116 457 -147 771 -446 917 -873 137 -402 111 -826 -74 -1195
-120 -238 -270 -408 -491 -553 -109 -72 -130 -99 -106 -140 8 -15 26 -33 41
-41 24 -14 30 -13 79 13 96 50 212 139 320 247 218 218 368 502 441 839 19 89
22 135 23 300 0 203 -8 269 -51 442 -35 139 -68 227 -135 359 -189 367 -528
633 -974 763 -207 60 -435 92 -730 101 -99 4 -216 13 -259 21 -293 56 -400
258 -204 388 161 107 503 107 809 0 178 -62 359 -163 508 -283 88 -71 99 -69
208 27 48 42 132 113 186 157 55 43 103 89 108 102 17 45 -20 96 -70 96 -32 0
-57 -17 -227 -160 -62 -51 -115 -93 -118 -93 -3 0 -32 20 -63 44 -189 142
-458 264 -688 310 -147 29 -305 40 -415 29z"/>
</g>
</svg>
